<svg width="25" height="25" viewBox="0 0 25 25" fill="none" xmlns="http://www.w3.org/2000/svg">
<path d="M9.66147 9.17092C9.91484 8.45065 10.415 7.8433 11.0732 7.45643C11.7315 7.06956 12.5054 6.92814 13.258 7.05722C14.0105 7.1863 14.6931 7.57755 15.1848 8.16168C15.6765 8.7458 15.9457 9.4851 15.9445 10.2486C15.9445 12.404 12.7114 13.4818 12.7114 13.4818M12.7976 17.7926H12.8084M23.5747 12.404C23.5747 18.3561 18.7496 23.1811 12.7976 23.1811C6.84558 23.1811 2.02051 18.3561 2.02051 12.404C2.02051 6.45202 6.84558 1.62695 12.7976 1.62695C18.7496 1.62695 23.5747 6.45202 23.5747 12.404Z" stroke="#344054" stroke-width="2.42485" stroke-linecap="round" stroke-linejoin="round"/>
</svg>
