<svg width="26" height="23" viewBox="0 0 26 23" fill="none" xmlns="http://www.w3.org/2000/svg">
<path d="M22.3246 3.77614C21.7741 3.22544 21.1206 2.78858 20.4013 2.49053C19.6819 2.19247 18.9109 2.03906 18.1323 2.03906C17.3537 2.03906 16.5827 2.19247 15.8633 2.49053C15.144 2.78858 14.4905 3.22544 13.94 3.77614L12.7976 4.91851L11.6553 3.77614C10.5434 2.66428 9.03539 2.03964 7.46297 2.03964C5.89056 2.03964 4.38255 2.66428 3.27068 3.77614C2.15882 4.88801 1.53418 6.39602 1.53418 7.96843C1.53418 9.54085 2.15882 11.0489 3.27068 12.1607L4.41305 13.3031L12.7976 21.6877L21.1822 13.3031L22.3246 12.1607C22.8753 11.6103 23.3121 10.9567 23.6102 10.2374C23.9083 9.51807 24.0617 8.74706 24.0617 7.96843C24.0617 7.1898 23.9083 6.4188 23.6102 5.69947C23.3121 4.98014 22.8753 4.32659 22.3246 3.77614V3.77614Z" stroke="#344054" stroke-width="2.42485" stroke-linecap="round" stroke-linejoin="round"/>
</svg>
