<svg width="17" height="15" viewBox="0 0 17 15" fill="none" xmlns="http://www.w3.org/2000/svg">
<path d="M8.17137 1.35059C10.334 1.35059 10.5901 1.35937 11.4407 1.39453C12.2311 1.42676 12.658 1.5498 12.9425 1.65234C13.3188 1.78711 13.5907 1.95117 13.8721 2.21191C14.1567 2.47559 14.3306 2.72461 14.476 3.07324C14.5867 3.33691 14.7195 3.73535 14.7542 4.46484C14.7922 5.25586 14.8017 5.49316 14.8017 7.49414C14.8017 9.49805 14.7922 9.73535 14.7542 10.5234C14.7195 11.2559 14.5867 11.6514 14.476 11.915C14.3306 12.2637 14.1535 12.5156 13.8721 12.7764C13.5875 13.04 13.3188 13.2012 12.9425 13.3359C12.658 13.4385 12.228 13.5615 11.4407 13.5938C10.587 13.6289 10.3309 13.6377 8.17137 13.6377C6.00869 13.6377 5.75259 13.6289 4.90206 13.5938C4.11161 13.5615 3.68477 13.4385 3.4002 13.3359C3.02395 13.2012 2.75203 13.0371 2.47063 12.7764C2.18607 12.5127 2.01217 12.2637 1.86673 11.915C1.75607 11.6514 1.62327 11.2529 1.58849 10.5234C1.55055 9.73242 1.54106 9.49512 1.54106 7.49414C1.54106 5.49023 1.55055 5.25293 1.58849 4.46484C1.62327 3.73242 1.75607 3.33691 1.86673 3.07324C2.01217 2.72461 2.18923 2.47266 2.47063 2.21191C2.7552 1.94824 3.02395 1.78711 3.4002 1.65234C3.68477 1.5498 4.11477 1.42676 4.90206 1.39453C5.75259 1.35937 6.00869 1.35059 8.17137 1.35059ZM8.17137 0C5.97391 0 5.69884 0.00878906 4.83566 0.0439453C3.97565 0.0791016 3.3844 0.208008 2.87218 0.392578C2.33784 0.585937 1.8857 0.84082 1.43672 1.25977C0.984586 1.67578 0.709509 2.09473 0.50083 2.58691C0.301637 3.06445 0.162517 3.60937 0.124575 4.40625C0.0866338 5.20898 0.0771484 5.46387 0.0771484 7.5C0.0771484 9.53613 0.0866338 9.79102 0.124575 10.5908C0.162517 11.3877 0.301637 11.9355 0.50083 12.4102C0.709509 12.9053 0.984586 13.3242 1.43672 13.7402C1.8857 14.1562 2.33784 14.4141 2.86902 14.6045C3.3844 14.7891 3.97249 14.918 4.8325 14.9531C5.69567 14.9883 5.97075 14.9971 8.1682 14.9971C10.3657 14.9971 10.6407 14.9883 11.5039 14.9531C12.3639 14.918 12.9552 14.7891 13.4674 14.6045C13.9986 14.4141 14.4507 14.1562 14.8997 13.7402C15.3487 13.3242 15.6269 12.9053 15.8324 12.4131C16.0316 11.9355 16.1707 11.3906 16.2087 10.5938C16.2466 9.79395 16.2561 9.53906 16.2561 7.50293C16.2561 5.4668 16.2466 5.21191 16.2087 4.41211C16.1707 3.61523 16.0316 3.06738 15.8324 2.59277C15.6332 2.09473 15.3581 1.67578 14.906 1.25977C14.457 0.84375 14.0049 0.585938 13.4737 0.395508C12.9583 0.210937 12.3702 0.0820312 11.5102 0.046875C10.6439 0.00878907 10.3688 0 8.17137 0Z" fill="white"/>
<path d="M8.17144 3.64746C5.87597 3.64746 4.01367 5.37305 4.01367 7.5C4.01367 9.62695 5.87597 11.3525 8.17144 11.3525C10.4669 11.3525 12.3292 9.62695 12.3292 7.5C12.3292 5.37305 10.4669 3.64746 8.17144 3.64746ZM8.17144 9.99902C6.68223 9.99902 5.47443 8.87988 5.47443 7.5C5.47443 6.12012 6.68223 5.00098 8.17144 5.00098C9.66065 5.00098 10.8685 6.12012 10.8685 7.5C10.8685 8.87988 9.66065 9.99902 8.17144 9.99902Z" fill="white"/>
<path d="M13.4643 3.49512C13.4643 3.99317 13.028 4.39453 12.4936 4.39453C11.9561 4.39453 11.5229 3.99024 11.5229 3.49512C11.5229 2.99707 11.9593 2.5957 12.4936 2.5957C13.028 2.5957 13.4643 3 13.4643 3.49512Z" fill="white"/>
</svg>
