<svg width="37" height="32" viewBox="0 0 37 32" fill="none" xmlns="http://www.w3.org/2000/svg">
<path d="M19.75 15.25V14C19.75 13.31 19.19 12.75 18.5 12.75H11C10.31 12.75 9.75 13.31 9.75 14V15.25C9.75 15.94 10.31 16.5 11 16.5H18.5C19.19 16.5 19.75 15.94 19.75 15.25ZM11 14H18.5V15.25H11V14ZM14.75 10.25V9C14.75 8.31 14.19 7.75 13.5 7.75H6C5.31 7.75 4.75 8.31 4.75 9V10.25C4.75 10.94 5.31 11.5 6 11.5H13.5C14.19 11.5 14.75 10.94 14.75 10.25ZM6 9H13.5V10.25H6V9ZM27.25 20.25V19C27.25 18.31 26.69 17.75 26 17.75H18.5C17.81 17.75 17.25 18.31 17.25 19V20.25C17.25 20.94 17.81 21.5 18.5 21.5H26C26.69 21.5 27.25 20.94 27.25 20.25ZM18.5 19H26V20.25H18.5V19ZM32.25 2.75H29.75V0.875C29.75 0.53 29.47 0.25 29.125 0.25C28.78 0.25 28.5 0.53 28.5 0.875V2.75H27.25V0.875C27.25 0.53 26.97 0.25 26.625 0.25C26.28 0.25 26 0.53 26 0.875V2.75H11V0.875C11 0.53 10.72 0.25 10.375 0.25C10.03 0.25 9.75 0.53 9.75 0.875V2.75H8.5V0.875C8.5 0.53 8.22 0.25 7.875 0.25C7.53 0.25 7.25 0.53 7.25 0.875V2.75H4.75C2.67875 2.75 1 4.42875 1 6.5V27.75C1 29.8213 2.67875 31.5 4.75 31.5H32.25C34.3213 31.5 36 29.8213 36 27.75V6.5C36 4.42875 34.3213 2.75 32.25 2.75ZM34.75 27.75C34.75 29.1313 33.6312 30.25 32.25 30.25H4.75C3.36875 30.25 2.25 29.1313 2.25 27.75V6.5C2.25 5.11875 3.36875 4 4.75 4H32.25C33.6312 4 34.75 5.11875 34.75 6.5V27.75ZM31 22.75H27.25C26.56 22.75 26 23.31 26 24V25.25C26 25.94 26.56 26.5 27.25 26.5H31C31.69 26.5 32.25 25.94 32.25 25.25V24C32.25 23.31 31.69 22.75 31 22.75ZM31 25.25H27.25V24H31V25.25Z" fill="#101828" stroke="#101828" stroke-width="0.5"/>
</svg>
