<svg width="30" height="30" viewBox="0 0 30 30" fill="none" xmlns="http://www.w3.org/2000/svg">
<path fill-rule="evenodd" clip-rule="evenodd" d="M19.6488 11.0524C19.6488 13.7653 17.4494 15.9647 14.7365 15.9647C12.0235 15.9647 9.82422 13.7653 9.82422 11.0524C9.82422 8.33944 12.0235 6.14014 14.7365 6.14014C17.4494 6.14014 19.6488 8.33944 19.6488 11.0524ZM17.1926 11.0524C17.1926 12.4089 16.093 13.5086 14.7365 13.5086C13.38 13.5086 12.2804 12.4089 12.2804 11.0524C12.2804 9.69593 13.38 8.59628 14.7365 8.59628C16.093 8.59628 17.1926 9.69593 17.1926 11.0524Z" fill="#005A5B"/>
<path fill-rule="evenodd" clip-rule="evenodd" d="M14.7373 1.22803C7.2766 1.22803 1.22852 7.27611 1.22852 14.7368C1.22852 22.1975 7.2766 28.2456 14.7373 28.2456C22.1979 28.2456 28.2461 22.1975 28.2461 14.7368C28.2461 7.27611 22.1979 1.22803 14.7373 1.22803ZM3.68466 14.7368C3.68466 17.3037 4.55972 19.6663 6.02779 21.5424C8.04731 18.8986 11.2327 17.1929 14.8165 17.1929C18.3537 17.1929 21.503 18.8546 23.526 21.44C24.9462 19.5807 25.7899 17.2573 25.7899 14.7368C25.7899 8.6326 20.8415 3.68417 14.7373 3.68417C8.63309 3.68417 3.68466 8.6326 3.68466 14.7368ZM14.7373 25.7894C12.0967 25.7894 9.6723 24.8633 7.77127 23.3183C9.32582 21.0997 11.9017 19.6491 14.8165 19.6491C17.695 19.6491 20.2431 21.0639 21.8034 23.2362C19.8877 24.8304 17.4244 25.7894 14.7373 25.7894Z" fill="#005A5B"/>
</svg>
