<svg width="34" height="36" viewBox="0 0 34 36" fill="none" xmlns="http://www.w3.org/2000/svg">
<path d="M30.7321 0.5C29.6555 0.5 3.8939 0.5 2.82614 0.5C1.54349 0.5 0.5 1.62175 0.5 3.00059V32.9994C0.5 34.3783 1.54349 35.5 2.82607 35.5H30.7321C32.0147 35.5 33.0581 34.3783 33.0581 32.9994V3.00059C33.0582 1.62175 32.0147 0.5 30.7321 0.5ZM17.5836 2.7826H26.7135V15.8003L22.7599 12.8072C22.5765 12.6685 22.3626 12.5991 22.1485 12.5991C21.9345 12.5991 21.7205 12.6685 21.5372 12.8072L17.5836 15.8003V2.7826ZM30.9349 32.9994C30.9349 33.1196 30.8439 33.2174 30.7321 33.2174H2.82614C2.71431 33.2174 2.62343 33.1196 2.62343 32.9994V3.00059C2.62336 2.88037 2.71431 2.7826 2.82614 2.7826H15.4603V17.9999C15.4603 18.4261 15.6812 18.8167 16.0331 19.0129C16.385 19.2092 16.8093 19.1784 17.1333 18.9331L22.1486 15.1363L27.1639 18.9331C27.4885 19.1788 27.913 19.2089 28.2642 19.0129C28.6161 18.8166 28.8369 18.426 28.8369 17.9999V2.7826H30.7321C30.8439 2.7826 30.9349 2.88037 30.9349 3.00059V32.9994Z" fill="#101828"/>
</svg>
