<svg width="19" height="20" viewBox="0 0 19 20" fill="none" xmlns="http://www.w3.org/2000/svg">
<path d="M3.92825 12.0328H15.1197V10.1675H3.92825V12.0328ZM3.92825 9.23492H15.1197V7.36967H3.92825V9.23492ZM3.92825 6.43705H15.1197V4.5718H3.92825V6.43705ZM18.8502 19.4938L15.1197 15.7633H2.063C1.55006 15.7633 1.1111 15.5808 0.746137 15.2158C0.380548 14.8502 0.197754 14.411 0.197754 13.898V2.70656C0.197754 2.19361 0.380548 1.75435 0.746137 1.38876C1.1111 1.02379 1.55006 0.841309 2.063 0.841309H16.985C17.4979 0.841309 17.9372 1.02379 18.3028 1.38876C18.6677 1.75435 18.8502 2.19361 18.8502 2.70656V19.4938ZM2.063 2.70656V13.898H15.8891L16.985 14.9939V2.70656H2.063ZM2.063 2.70656V14.9939V2.70656Z" fill="#333333"/>
</svg>
