<svg width="24" height="21" viewBox="0 0 24 21" fill="none" xmlns="http://www.w3.org/2000/svg">
<path d="M20.9467 3.22455C20.4527 2.7303 19.8661 2.33822 19.2205 2.07071C18.5749 1.80321 17.8829 1.66553 17.1841 1.66553C16.4853 1.66553 15.7933 1.80321 15.1477 2.07071C14.5021 2.33822 13.9156 2.7303 13.4216 3.22455L12.3963 4.24983L11.371 3.22455C10.3731 2.22666 9.01967 1.66604 7.60843 1.66604C6.19719 1.66604 4.84376 2.22666 3.84586 3.22455C2.84797 4.22245 2.28735 5.57588 2.28735 6.98712C2.28735 8.39836 2.84797 9.7518 3.84586 10.7497L4.87114 11.775L12.3963 19.3001L19.9214 11.775L20.9467 10.7497C21.4409 10.2557 21.833 9.6691 22.1005 9.02351C22.368 8.37791 22.5057 7.68594 22.5057 6.98712C22.5057 6.2883 22.368 5.59633 22.1005 4.95073C21.833 4.30514 21.4409 3.71858 20.9467 3.22455V3.22455Z" stroke="#FF644C" stroke-width="2.57931" stroke-linecap="round" stroke-linejoin="round"/>
</svg>
