<?xml version="1.0" standalone="no"?>
<!DOCTYPE svg PUBLIC "-//W3C//DTD SVG 20010904//EN"
 "http://www.w3.org/TR/2001/REC-SVG-20010904/DTD/svg10.dtd">
<svg version="1.0" xmlns="http://www.w3.org/2000/svg"
 width="410.000000pt" height="410.000000pt" viewBox="0 0 410.000000 410.000000"
 preserveAspectRatio="xMidYMid meet">
<metadata>
Created by potrace 1.14, written by Peter Selinger 2001-2017
</metadata>
<g transform="translate(0.000000,410.000000) scale(0.100000,-0.100000)"
fill="#000000" stroke="none">
<path d="M1937 3624 c-1 -1 -29 -5 -62 -8 -636 -71 -1172 -531 -1340 -1149
-39 -144 -53 -254 -52 -424 1 -740 517 -1374 1247 -1528 107 -23 177 -29 320
-29 192 -1 335 22 503 78 559 188 979 693 1053 1266 3 25 7 56 10 70 5 32 6
279 0 305 -2 11 -7 45 -10 76 -4 31 -11 71 -16 88 -5 17 -9 35 -10 39 -12 81
-94 305 -137 374 -13 21 -23 40 -23 43 0 3 -21 37 -46 77 -226 352 -621 622
-1014 692 -19 3 -44 8 -55 10 -70 14 -357 29 -368 20z"/>
</g>
</svg>
