<svg width="132" height="129" viewBox="0 0 132 129" fill="none" xmlns="http://www.w3.org/2000/svg">
<path d="M24.9004 39.2415C22.8834 38.0412 22.208 35.4213 23.5633 33.505C30.3058 23.9717 39.9873 16.8489 51.1822 13.27C63.7312 9.25824 77.3144 9.97688 89.3701 15.2904C101.426 20.6039 111.12 30.145 116.626 42.1142C122.131 54.0834 123.067 67.6534 119.256 80.2648C115.445 92.8763 107.151 103.658 95.9391 110.575C84.7266 117.493 71.3706 120.069 58.3898 117.817C45.409 115.565 33.7007 108.641 25.4732 98.3517C18.1335 89.1722 14.0164 77.8799 13.6815 66.208C13.6142 63.8618 15.6273 62.0544 17.9715 62.1718C20.3157 62.2893 22.1 64.2881 22.2019 66.633C22.6187 76.228 26.0687 85.4859 32.1117 93.0437C39.043 101.712 48.9067 107.545 59.8425 109.442C70.7782 111.339 82.0302 109.169 91.4761 103.341C100.922 97.5136 107.909 88.4309 111.12 77.8063C114.33 67.1817 113.542 55.7495 108.904 45.666C104.266 35.5825 96.0984 27.5445 85.942 23.0681C75.7857 18.5918 64.3424 17.9863 53.7705 21.3661C44.5533 24.3127 36.5538 30.111 30.8933 37.8695C29.5099 39.7657 26.9173 40.4419 24.9004 39.2415Z" fill="#FF644C"/>
<path fill-rule="evenodd" clip-rule="evenodd" d="M46.5354 41.2734C48.8045 41.4221 51.0106 39.7361 51.463 37.5076C51.9153 35.2791 50.4425 33.352 48.1735 33.2033L30.6188 32.0528L30.8091 14.4602C30.8338 12.1863 29.0244 10.571 26.768 10.8523C24.5115 11.1335 22.6623 13.2048 22.6377 15.4786L22.4136 36.1903C22.4026 37.2051 22.7569 38.0887 23.3531 38.7311C23.95 39.4069 24.8244 39.8506 25.8668 39.9189L46.5354 41.2734Z" fill="#FF644C"/>
<path fill-rule="evenodd" clip-rule="evenodd" d="M67.5306 70.4827L86.0618 76.1669C88.2358 76.8338 89.4575 79.1367 88.7907 81.3107C88.1239 83.4846 85.8209 84.7064 83.647 84.0396L62.5556 77.57C61.1851 77.1496 60.193 76.079 59.8139 74.8005C59.4839 74.2081 59.2959 73.5258 59.2959 72.7995V49.0738C59.2959 46.7999 61.1393 44.9565 63.4132 44.9565C65.6872 44.9565 67.5306 46.7999 67.5306 49.0738V70.4827Z" fill="#FF644C"/>
</svg>
